<svg xmlns="http://www.w3.org/2000/svg" width="500" height="500" viewBox="0 0 500 500">
  <metadata><?xpacket begin="﻿" id="W5M0MpCehiHzreSzNTczkc9d"?>
<x:xmpmeta xmlns:x="adobe:ns:meta/" x:xmptk="Adobe XMP Core 5.6-c142 79.160924, 2017/07/13-01:06:39        ">
   <rdf:RDF xmlns:rdf="http://www.w3.org/1999/02/22-rdf-syntax-ns#">
      <rdf:Description rdf:about=""/>
   </rdf:RDF>
</x:xmpmeta>
                                                                                                    
                                                                                                    
                                                                                                    
                                                                                                    
                                                                                                    
                                                                                                    
                                                                                                    
                                                                                                    
                                                                                                    
                                                                                                    
                                                                                                    
                                                                                                    
                                                                                                    
                                                                                                    
                                                                                                    
                                                                                                    
                                                                                                    
                                                                                                    
                                                                                                    
                                                                                                    
                           
<?xpacket end="w"?></metadata>
<defs>
    <style>
      .cls-1, .cls-5 {
        fill: #f2af47;
      }

      .cls-1, .cls-3, .cls-4, .cls-5, .cls-6, .cls-7, .cls-8, .cls-9 {
        fill-rule: evenodd;
      }

      .cls-1 {
        opacity: 0.95;
      }

      .cls-2, .cls-8 {
        stroke: #000;
        stroke-linejoin: round;
      }

      .cls-2 {
        stroke-width: 3px;
      }

      .cls-3, .cls-8 {
        fill: #e8daae;
      }

      .cls-4 {
        fill: #eba435;
      }

      .cls-6 {
        fill: #eb7135;
      }

      .cls-7 {
        fill: #e8692a;
      }

      .cls-8 {
        stroke-width: 1px;
      }

      .cls-9 {
        fill: #d6c89c;
      }
    </style>
  </defs>
  <path class="cls-1" d="M253.1,4C388.829,5.169,496.3,122.705,492.9,255.822,489.618,384.466,383.612,495,251,495,118.159,495,12.335,384.091,9.1,255.822,5.71,121.541,115.607,2.816,253.1,4Z"/>
  <path class="cls-3" d="M218.431,328.072c-22.679,2.911-30.479,37.153-54.771,38.034-4.724.171-8.669-.895-13.812,1.676-8.686,4.343-16.146,17.082-11.3,25.564,3.2,5.595,11.116,8.222,17.579,7.125,4.244-.721,8.923-4.121,9.626-3.353,1.031,1.126-7.31,7.877-6.278,14.668,1.212,7.973,14.026,15.123,23.438,12.572,7.009-1.9,9.532-8.476,14.649-15.506A68.462,68.462,0,0,1,223.51,387.9c8.691-4.075,17.712-5.623,28.359-8.408,9.218-2.41,15.627-4.712,16.719-7.174C274.235,359.584,243.764,324.819,218.431,328.072Z"/>
  <path class="cls-4" d="M194.547,334.05c-1.484-15.16,21.435-30.969,26.968-40.682,12.02-21.1,4.585-61.712,4.921-66.031,4.131-53.031,38.986-90.554,60.04-107.424,19.752-15.827,64.85-44.886,105.314-29.566,21.631,8.19,41.849,28.394,56.1,71.944,7.123,21.762,19,75.729-11.811,116.293-13.564,17.862-35.992,26.828-68.9,40.407-34.611,14.284-71.157,28.749-82.677,39.422-13.862,12.843-26.71,30.249-39.8,27.056-7.2-1.754-12.7-12.537-19.108-17.937a137.4,137.4,0,0,0-13.923-10.1c-3.1-1.984-9.692-6.233-13.78-13.8A28.49,28.49,0,0,1,194.547,334.05Z"/>
  <path class="cls-5" d="M196.935,337.638c-1.227-3.985-1.461-7.322-1.013-9.476a18.99,18.99,0,0,1,5.759-9.611c3.614-3.562,5.476-6.906,9.074-10.484,5.927-5.895,11.207-8.952,14.484-15.2,2.524-4.814,3.076-9.708,3.84-16.775,0.407-3.773,1.057-8.642,1.221-11.008,0.652-9.371.334-17.475,0.094-27.023-0.2-7.967-.286-16.932.3-21.907a108.19,108.19,0,0,1,7.9-29.21c3.28-7.816,11.112-20.769,20.36-32.557a240.98,240.98,0,0,1,18.84-21,187.162,187.162,0,0,1,19.6-17.417,151.571,151.571,0,0,1,22.087-13.5c8.812-4.434,17.69-7.931,24.147-9.559a110.31,110.31,0,0,1,23.585-3,74,74,0,0,1,20.229,2.131,56.121,56.121,0,0,1,17.285,7.625,92.822,92.822,0,0,1,10.748,9.566c3.328,3.336,5.163,5.343,4.777,5.979-0.982,1.616-11.605-2.9-17.914-5.979-6.546-3.193-10.932-6.3-17.913-8.37a63.857,63.857,0,0,0-16.719-2.392,77.709,77.709,0,0,0-20.3,2.392,109.185,109.185,0,0,0-31.05,13.153c-8.205,4.976-18.017,12.867-27.727,22.72-4.233,4.295-9.414,10.35-14.265,16.276-7.695,9.4-14.485,18.863-18.913,26.772-5.756,10.281-9.473,19.826-11.274,27.7-1.23,5.381-2.076,14.568-2.262,23.43-0.112,5.317.262,14.357,0.4,21.81a213.085,213.085,0,0,1-1.195,22.72c-0.635,6.35-1.65,13.074-5.971,20.328-2.444,4.1-9.609,11.359-18.446,17.518-6.942,4.839-11.52,7.213-14.264,13.286-4.286,9.491.405,20.238-.728,20.615C200.925,347.466,198.454,342.57,196.935,337.638Z"/>
  <path class="cls-6" d="M420.255,115.222c0.384,8.233-2.8,12.327-4.777,20.328-3.168,12.831,2.129,18.469-.613,31.4-3.47,16.369-15.192,20.813-16.106,36.763-0.7,12.192,8.282,19.526,4.777,29.895-4.665,13.8-24.686,14.353-34.633,28.7-5.406,7.8-5.35,18.381-7.931,26.062-3.28,9.762-10.09,18.175-11.636,30.661-1.853,14.969,5.706,20.531,3.062,34.341-4.115,21.5-27.124,27.312-30.07,50.039-0.469,3.622-.761,10.258,2.389,11.958,5.087,2.745,14.2-10.276,23.884-8.371,6.924,1.362,8.68,8.384,15.525,15.545,12.448,13.023,29.837,14.944,39.41,14.35,13.31-.826,31.947-7.585,37.021-21.524,4.141-11.38-4.468-19.882-3.583-32.286,1.208-16.923,12.472-21.036,14.331-39.461,0.9-8.917-1.652-14.47-2.756-23.364-2.724-21.938,7.368-34.01,9.8-55.19A265.024,265.024,0,0,0,457.123,197c-2.792-19.367-7.36-35.844-12.861-48.444-5.6-12.833-13.911-23.388-19.23-33.329-0.945-1.766-3.327-6.209-4.444-5.843C419.736,109.659,420.136,112.685,420.255,115.222Z"/>
  <path class="cls-7" d="M385.622,307.743c6.526-13.612,22.394-22.1,25.8-19.03s-5.3,18.226-12.666,27.4C393.606,322.528,387.105,329.42,384,327.9,380.728,326.308,381.794,315.728,385.622,307.743Zm58.517,25.112a6.41,6.41,0,0,1,.871,4.063c-0.154,2.448,1.148,9.232-.553,14.394-2.952,8.959-5.9,14.2-7.74,14.394-4.141.43-7.752-6.777-8.57-8.581-2.006-4.429-3.772-12.676,1.106-19.653,2.053-2.938,6.734-8.03,11.3-7.009A5.9,5.9,0,0,1,444.139,332.855Zm-97.926,40.656c-3.415.232-7.188,2.795-11.942,8.371-3.446,4.041-6.4,8.714-7.268,10.946s-1.838,7.5-2.128,12.644c-0.2,3.507-.2,5.821.425,5.967,0.966,0.227,3.014-4.847,5.818-12.076,3.25-8.379,5.231-13.87,10.641-18.9,2.413-2.241,8.559-4.912,8.23-6.109C349.773,373.576,347.716,373.409,346.213,373.511ZM411.9,180.99a50.16,50.16,0,0,0-8.853,13.6,33.441,33.441,0,0,0-2.764,8.554c-0.488,5.648,2.073,9.283,3.769,15.6,1.334,4.965,1.592,10.021,1.256,12.075-1,6.112-5.208,10.4-4.522,11.069,0.961,0.932,10.658-4.172,13.064-13.081,2.139-7.918-3.509-15.568-4.02-22.893-0.454-6.523,1.168-13.535,4.272-20.126,2.707-5.749,7.613-10.986,7.034-11.572S415.949,176.756,411.9,180.99Zm-32.244,72.943a29.112,29.112,0,0,0-9.16,8.854c-2.088,3.24-4,8.777-5.17,15.531-0.955,5.538-.742,9.809-2.737,14.313-2.306,5.206-5.376,6.941-7.6,12.181-1.067,2.51-1.844,8.047-2.434,13.4a68.458,68.458,0,0,0-.608,7.613c0.281,6.858,3.134,9.888,3.346,16.749,0.126,4.085-1.393,8.824-.609,9.136,1.071,0.426,5.36-4.963,7-11.877,2.345-9.913-2.9-14.542-1.52-23.449,1.475-9.51,8.02-11.642,11.253-21.317,2.717-8.131-.319-12.636,3.041-20.708,2.332-5.6,6.8-11.377,14.76-16.839,6.808-4.668,14.513-6.048,14.331-7.174C403.275,248.736,390.285,247.351,379.651,253.933Z"/>
  <path id="fork" class="cls-8" d="M471.507,383.455a74.907,74.907,0,0,0,8.141-16.4c-20.553-15.6-41-31.02-61.558-46.424-43.141-32.319-86.827-64.617-128.894-95.174q-12.867-9.346-25.71-18.614c7.389-11.053,11.081-22.036,10.842-33.019-0.893-41.11-56.835-85.686-155.344-105.035l63.355,77.448-94.923-39q31.578,41.439,63.157,82.877L57.414,148.679C109.071,240.1,169.459,280.925,207.607,268.562c10.559-3.422,19.725-11.029,27.641-22.715,8.526,5.437,16.891,10.881,25.369,16.508C307,293.143,347.592,325.414,392.5,355.978c21.7,14.768,43.48,28.7,66.311,42.435C463.846,393.151,468.346,388.236,471.507,383.455Z"/>
  <path id="fork_shades" data-name="fork shades" class="cls-9" d="M236.242,218.7c-12.691,19.255-32.528,30.609-51.622,34.422-5.489,1.1-29.257,5.158-32.9-2.73-4.167-9.018,32.334-34.263,48.135-56.178,20.512-28.447,29.815-71.951,38.2-70.8,4.841,0.663,7.518,12.649,9.306,29.844C250.647,184.888,241.583,210.6,236.242,218.7Zm27.244-11.856Q264,210,264.511,213.16c23.4,18.035,46.446,35.333,70.128,52.628,7.753,5.663,24.443,17.708,36.729,26.591q20.84,15.067,41.627,30.137c15.714,12.253,34.526,26.848,46.865,35.787l1.511,1.094,13.181,9.543L477,370.713l1.764-2.438-0.342-2.1q-3.05-2.214-6.121-4.432c-6.648-4.8-15.875-11.341-19.589-14.182-7.881-6.028-14.482-12.054-22.379-18.06-4.045-3.076-8.823-6.487-13.468-9.75-7.2-5.062-18.692-13.452-28.159-20.387-15.463-11.327-32.76-25.152-49.644-37.9-14.3-10.8-29.254-21.764-44.406-32.633C284.259,221.37,273.969,214.112,263.486,206.844Zm-325.2,106.378M65.1,156.1a341.883,341.883,0,0,0,42.057,52.74c6.884,7.068,18.343,18.16,19.048,17.506,0.929-.862-17.261-21.677-33.685-41.106q-10.057-11.9-20.074-23.822c10.058,5.208,20.072,10.015,30.464,14.625,18.775,8.327,43.373,17.806,43.789,16.84,0.3-.7-12.054-6.657-18.9-9.971C107.69,173.188,86.869,164.293,65.1,156.1Zm114.645-19.172c-13.715-12.56-38.928-46.14-51.31-63.155,6.8,1.539,13.467,3.311,20.2,5.371,13.821,4.23,30.549,11.032,47.308,19.133,7.276,3.518,17.082,8.185,16.816,8.816-0.358.85-18.889-6.335-32.628-11.445-14.312-5.323-28.576-10.5-43.125-15.67,6.42,6.764,12.51,13.618,18.508,20.831,14.254,17.138,29.129,37.773,27.905,38.779C183.078,139.872,181.532,138.566,179.747,136.931Z"/>
</svg>
