<svg xmlns="http://www.w3.org/2000/svg" width="300" height="300" viewBox="0 0 300 300">
  <metadata><?xpacket begin="﻿" id="W5M0MpCehiHzreSzNTczkc9d"?>
<x:xmpmeta xmlns:x="adobe:ns:meta/" x:xmptk="Adobe XMP Core 5.6-c142 79.160924, 2017/07/13-01:06:39        ">
   <rdf:RDF xmlns:rdf="http://www.w3.org/1999/02/22-rdf-syntax-ns#">
      <rdf:Description rdf:about=""/>
   </rdf:RDF>
</x:xmpmeta>
                                                                                                    
                                                                                                    
                                                                                                    
                                                                                                    
                                                                                                    
                                                                                                    
                                                                                                    
                                                                                                    
                                                                                                    
                                                                                                    
                                                                                                    
                                                                                                    
                                                                                                    
                                                                                                    
                                                                                                    
                                                                                                    
                                                                                                    
                                                                                                    
                                                                                                    
                                                                                                    
                           
<?xpacket end="w"?></metadata>
<defs>
    <style>
      .cls-1 {
        fill: #e8daae;
      }

      .cls-1, .cls-2, .cls-3, .cls-4, .cls-5 {
        fill-rule: evenodd;
      }

      .cls-2 {
        fill: #eba435;
      }

      .cls-3 {
        fill: #f2af47;
      }

      .cls-4 {
        fill: #eb7135;
      }

      .cls-5 {
        fill: #e8692a;
      }
    </style>
  </defs>
  <path class="cls-1" d="M95,205c-18.991,2.435-25.522,31.071-45.864,31.807-3.956.143-7.259-.748-11.565,1.4-7.273,3.631-13.52,14.285-9.463,21.378,2.676,4.679,9.308,6.876,14.72,5.958,3.554-.6,7.472-3.446,8.061-2.8,0.863,0.941-6.121,6.587-5.257,12.266,1.014,6.668,11.745,12.647,19.626,10.514,5.869-1.589,7.981-7.089,12.266-12.967a57.314,57.314,0,0,1,21.729-17.524c7.277-3.408,14.832-4.7,23.747-7.031,7.719-2.016,13.085-3.941,14-6C141.729,231.353,116.213,202.28,95,205Z"/>
  <path class="cls-2" d="M75,210c-1.242-12.678,17.95-25.9,22.582-34.022,10.065-17.647,3.84-51.607,4.121-55.22,3.459-44.348,32.645-75.727,50.275-89.835,16.54-13.236,54.3-37.537,88.187-24.725,18.113,6.849,35.042,23.745,46.978,60.165,5.964,18.2,15.906,63.33-9.89,97.252-11.359,14.937-30.139,22.435-57.693,33.792-28.982,11.945-59.584,24.041-69.23,32.967C138.722,241.114,127.964,255.67,117,253c-6.024-1.467-10.636-10.484-16-15a115.235,115.235,0,0,0-11.659-8.451c-2.6-1.659-8.115-5.212-11.538-11.538A23.812,23.812,0,0,1,75,210Z"/>
  <path class="cls-3" d="M77,213a17.007,17.007,0,0,1-.848-7.924,15.876,15.876,0,0,1,4.822-8.037c3.026-2.979,4.586-5.776,7.6-8.768,4.963-4.93,9.385-7.487,12.129-12.713,2.114-4.026,2.575-8.118,3.215-14.028,0.341-3.156.885-7.228,1.023-9.206,0.546-7.837.28-14.614,0.078-22.6-0.168-6.663-.24-14.16.255-18.32a90.389,90.389,0,0,1,6.615-24.428c2.747-6.536,9.3-17.369,17.049-27.226a201.557,201.557,0,0,1,15.776-17.557,156.619,156.619,0,0,1,16.411-14.566,126.943,126.943,0,0,1,18.5-11.285,107.452,107.452,0,0,1,20.22-7.994,92.476,92.476,0,0,1,19.749-2.508,62.05,62.05,0,0,1,16.94,1.782A47.023,47.023,0,0,1,251,14a77.734,77.734,0,0,1,9,8c2.787,2.79,4.324,4.468,4,5-0.822,1.352-9.717-2.427-15-5-5.481-2.67-9.155-5.266-15-7a53.552,53.552,0,0,0-14-2,65.161,65.161,0,0,0-17,2,91.5,91.5,0,0,0-26,11c-6.871,4.161-15.087,10.76-23.218,19-3.544,3.591-7.883,8.655-11.945,13.611A165.11,165.11,0,0,0,126,81a90.027,90.027,0,0,0-9.441,23.167,111.346,111.346,0,0,0-1.894,19.594c-0.093,4.446.22,12.006,0.335,18.239a177.747,177.747,0,0,1-1,19c-0.532,5.31-1.382,10.933-5,17-2.046,3.431-8.046,9.5-15.446,14.649-5.814,4.047-9.647,6.032-11.944,11.112C78.02,211.7,81.949,220.684,81,221,80.341,221.219,78.272,217.125,77,213Z"/>
  <path class="cls-4" d="M264,27c0.321,6.885-2.346,10.309-4,17-2.653,10.73,1.783,15.445-.513,26.256C256.581,83.945,246.766,87.662,246,101c-0.585,10.2,6.936,16.329,4,25-3.906,11.537-20.671,12-29,24-4.527,6.52-4.48,15.371-6.641,21.795-2.747,8.163-8.449,15.2-9.744,25.641-1.551,12.518,4.778,17.169,2.564,28.718C203.733,244.134,184.466,248.994,182,268c-0.393,3.029-.638,8.579,2,10,4.26,2.3,11.887-8.594,20-7,5.8,1.139,7.268,7.011,13,13,10.423,10.89,24.984,12.5,33,12,11.146-.691,26.752-6.343,31-18,3.468-9.517-3.741-16.627-3-27,1.011-14.152,10.443-17.592,12-33,0.753-7.457-1.383-12.1-2.308-19.538-2.28-18.347,6.171-28.442,8.2-46.154a221.305,221.305,0,0,0-1.025-56.923c-2.337-16.2-6.163-29.976-10.769-40.513C279.412,44.141,272.455,35.314,268,27c-0.791-1.477-2.786-5.193-3.721-4.886C263.565,22.348,263.9,24.878,264,27Z"/>
  <path class="cls-5" d="M235,188c5.465-11.384,18.752-18.485,21.606-15.915S252.172,187.327,246,195c-4.315,5.364-9.758,11.128-12.363,9.858C230.9,203.525,231.8,194.677,235,188Zm49,21a5.357,5.357,0,0,1,.729,3.4c-0.129,2.047.962,7.721-.463,12.037-2.472,7.492-4.937,11.877-6.481,12.037-3.467.36-6.492-5.667-7.176-7.176-1.68-3.7-3.158-10.6.926-16.435,1.719-2.457,5.639-6.715,9.465-5.861A4.941,4.941,0,0,1,284,209Zm-82,34c-2.86.194-6.019,2.337-10,7a41.044,41.044,0,0,0-6.086,9.154,42.291,42.291,0,0,0-1.782,10.574c-0.166,2.932-.166,4.868.356,4.99,0.809,0.19,2.524-4.054,4.872-10.1,2.721-7.007,4.38-11.6,8.911-15.8,2.02-1.874,7.167-4.108,6.891-5.109C204.981,243.054,203.259,242.915,202,243ZM257,82a41.909,41.909,0,0,0-7.413,11.369,27.91,27.91,0,0,0-2.315,7.153c-0.409,4.724,1.736,7.764,3.156,13.044a29.33,29.33,0,0,1,1.052,10.1c-0.836,5.111-4.361,8.7-3.787,9.256,0.8,0.78,8.925-3.489,10.94-10.939,1.791-6.621-2.938-13.019-3.366-19.145a34.516,34.516,0,0,1,3.576-16.83c2.267-4.808,6.375-9.188,5.891-9.678S260.394,78.459,257,82Zm-27,61a24.342,24.342,0,0,0-7.67,7.405c-1.749,2.709-3.354,7.339-4.33,12.988-0.8,4.631-.621,8.2-2.292,11.969-1.93,4.354-4.5,5.805-6.366,10.187-0.894,2.1-1.544,6.729-2.038,11.2a57.33,57.33,0,0,0-.509,6.367c0.235,5.735,2.624,8.27,2.8,14.007,0.106,3.416-1.166,7.379-.509,7.64,0.9,0.356,4.488-4.151,5.857-9.932,1.964-8.29-2.43-12.162-1.273-19.61,1.235-7.953,6.716-9.736,9.423-17.826,2.275-6.8-.267-10.568,2.546-17.318,1.953-4.686,5.691-9.514,12.36-14.082,5.7-3.9,12.152-5.058,12-6C249.782,138.654,238.905,137.5,230,143Z"/>
</svg>
