<svg xmlns="http://www.w3.org/2000/svg" width="32" height="32" viewBox="0 0 32 32">
  <metadata><?xpacket begin="﻿" id="W5M0MpCehiHzreSzNTczkc9d"?>
<x:xmpmeta xmlns:x="adobe:ns:meta/" x:xmptk="Adobe XMP Core 5.6-c142 79.160924, 2017/07/13-01:06:39        ">
   <rdf:RDF xmlns:rdf="http://www.w3.org/1999/02/22-rdf-syntax-ns#">
      <rdf:Description rdf:about=""/>
   </rdf:RDF>
</x:xmpmeta>
                                                                                                    
                                                                                                    
                                                                                                    
                                                                                                    
                                                                                                    
                                                                                                    
                                                                                                    
                                                                                                    
                                                                                                    
                                                                                                    
                                                                                                    
                                                                                                    
                                                                                                    
                                                                                                    
                                                                                                    
                                                                                                    
                                                                                                    
                                                                                                    
                                                                                                    
                                                                                                    
                           
<?xpacket end="w"?></metadata>
<defs>
    <style>
      .cls-1 {
        fill: #e8daae;
      }

      .cls-1, .cls-2, .cls-3, .cls-4, .cls-5 {
        fill-rule: evenodd;
      }

      .cls-2 {
        fill: #eba435;
      }

      .cls-3 {
        fill: #f2af47;
      }

      .cls-4 {
        fill: #eb7135;
      }

      .cls-5 {
        fill: #e8692a;
      }
    </style>
  </defs>
  <path class="cls-1" d="M10.133,21.867c-2.026.26-2.722,3.314-4.892,3.393a2.51,2.51,0,0,0-1.234.15A1.885,1.885,0,0,0,3,27.689a1.566,1.566,0,0,0,1.57.636c0.379-.064.8-0.367,0.86-0.3,0.092,0.1-.653.7-0.561,1.308a1.817,1.817,0,0,0,2.093,1.122,2.827,2.827,0,0,0,1.308-1.383A6.114,6.114,0,0,1,10.587,27.2a14.551,14.551,0,0,1,2.533-.75,2.811,2.811,0,0,0,1.493-.64C15.118,24.678,12.4,21.577,10.133,21.867Z"/>
  <path class="cls-2" d="M8,22.4c-0.133-1.352,1.915-2.763,2.409-3.629,1.074-1.882.41-5.5,0.44-5.89A14.172,14.172,0,0,1,16.211,3.3C17.975,1.887,22-.706,25.618.661c1.932,0.731,3.738,2.533,5.011,6.418,0.636,1.941,1.7,6.755-1.055,10.374-1.211,1.593-3.215,2.393-6.154,3.6-3.091,1.274-6.356,2.564-7.385,3.517-1.238,1.146-2.386,2.7-3.555,2.413-0.643-.156-1.135-1.118-1.707-1.6a12.264,12.264,0,0,0-1.244-.9A3.433,3.433,0,0,1,8.3,23.255,2.541,2.541,0,0,1,8,22.4Z"/>
  <path class="cls-3" d="M8.213,22.72a1.815,1.815,0,0,1-.09-0.845,1.7,1.7,0,0,1,.514-0.857c0.323-.318.489-0.616,0.811-0.935a6.079,6.079,0,0,0,1.294-1.356,3.978,3.978,0,0,0,.343-1.5c0.036-.337.094-0.771,0.109-0.982,0.058-.836.03-1.559,0.008-2.41a16.97,16.97,0,0,1,.027-1.954,9.644,9.644,0,0,1,.706-2.606,14.649,14.649,0,0,1,1.819-2.9A21.52,21.52,0,0,1,15.436,4.5a16.712,16.712,0,0,1,1.751-1.554,13.536,13.536,0,0,1,1.973-1.2A11.463,11.463,0,0,1,21.316.891,9.866,9.866,0,0,1,23.423.623a6.618,6.618,0,0,1,1.807.19,5.014,5.014,0,0,1,1.544.68,8.287,8.287,0,0,1,.96.853,1.191,1.191,0,0,1,.427.533,3.637,3.637,0,0,1-1.6-.533,9.74,9.74,0,0,0-1.6-.747,5.713,5.713,0,0,0-1.493-.213,6.951,6.951,0,0,0-1.813.213A9.76,9.76,0,0,0,18.88,2.773,13.511,13.511,0,0,0,16.4,4.8c-0.378.383-.841,0.923-1.274,1.452A17.606,17.606,0,0,0,13.44,8.64a9.606,9.606,0,0,0-1.007,2.471,11.86,11.86,0,0,0-.2,2.09c-0.01.474,0.023,1.281,0.036,1.946a18.972,18.972,0,0,1-.107,2.027,4.1,4.1,0,0,1-.533,1.813,6.457,6.457,0,0,1-1.648,1.563,3.044,3.044,0,0,0-1.274,1.185,4.023,4.023,0,0,0-.065,1.839A1.827,1.827,0,0,1,8.213,22.72Z"/>
  <path class="cls-4" d="M28.16,2.88a5.549,5.549,0,0,1-.427,1.813c-0.283,1.145.19,1.647-.055,2.8-0.31,1.46-1.357,1.857-1.439,3.279-0.062,1.088.74,1.742,0.427,2.667-0.417,1.231-2.2,1.28-3.093,2.56a8.3,8.3,0,0,0-.708,2.325,12.364,12.364,0,0,0-1.039,2.735c-0.166,1.335.51,1.831,0.273,3.063-0.367,1.918-2.423,2.436-2.686,4.464a1.185,1.185,0,0,0,.213,1.067c0.454,0.245,1.268-.917,2.133-0.747,0.618,0.121.775,0.748,1.387,1.387a4.565,4.565,0,0,0,3.52,1.28c1.189-.074,2.854-0.677,3.307-1.92,0.37-1.015-.4-1.774-0.32-2.88,0.108-1.509,1.114-1.876,1.28-3.52a8.28,8.28,0,0,0-.246-2.084c-0.243-1.957.658-3.034,0.875-4.923a23.611,23.611,0,0,0-.109-6.072A17.077,17.077,0,0,0,30.3,5.853c-0.5-1.145-1.242-2.086-1.718-2.973a1.119,1.119,0,0,0-.4-0.521A0.874,0.874,0,0,0,28.16,2.88Z"/>
  <path class="cls-5" d="M25.067,20.053c0.583-1.214,2-1.972,2.3-1.7S26.9,19.982,26.24,20.8c-0.46.572-1.041,1.187-1.319,1.052S24.725,20.766,25.067,20.053Zm5.227,2.24a0.571,0.571,0,0,1,.078.363,4.206,4.206,0,0,1-.049,1.284,2.212,2.212,0,0,1-.691,1.284,1.177,1.177,0,0,1-.766-0.765,1.8,1.8,0,0,1,.1-1.753,1.2,1.2,0,0,1,1.01-.625A0.527,0.527,0,0,1,30.293,22.293ZM21.547,25.92a1.741,1.741,0,0,0-1.067.747,4.378,4.378,0,0,0-.649.976,4.518,4.518,0,0,0-.19,1.128,0.857,0.857,0,0,0,.038.532,2.824,2.824,0,0,0,.52-1.077,4.005,4.005,0,0,1,.951-1.685A3.776,3.776,0,0,0,21.884,26,0.394,0.394,0,0,0,21.547,25.92ZM27.413,8.747a4.473,4.473,0,0,0-.791,1.213,2.977,2.977,0,0,0-.247.763,3.912,3.912,0,0,0,.337,1.391,3.126,3.126,0,0,1,.112,1.077,7.411,7.411,0,0,1-.4.987,1.656,1.656,0,0,0,1.167-1.167c0.191-.706-0.313-1.389-0.359-2.042a3.68,3.68,0,0,1,.381-1.8c0.242-.513.68-0.98,0.628-1.032A1.9,1.9,0,0,0,27.413,8.747Zm-2.88,6.507a2.6,2.6,0,0,0-.818.79,3.96,3.96,0,0,0-.462,1.385,5.2,5.2,0,0,1-.244,1.277c-0.206.464-.48,0.619-0.679,1.087a5.523,5.523,0,0,0-.217,1.2,6.087,6.087,0,0,0-.054.679c0.025,0.612.28,0.882,0.3,1.494a5.554,5.554,0,0,0-.054.815,1.588,1.588,0,0,0,.625-1.059c0.209-.884-0.259-1.3-0.136-2.092,0.132-.848.716-1.039,1.005-1.9,0.243-.725-0.029-1.127.272-1.847a3.47,3.47,0,0,1,1.318-1.5c0.608-.416,1.3-0.54,1.28-0.64A2.455,2.455,0,0,0,24.533,15.253Z"/>
</svg>
