<svg xmlns="http://www.w3.org/2000/svg" width="500" height="500" viewBox="0 0 500 500">
  <metadata><?xpacket begin="﻿" id="W5M0MpCehiHzreSzNTczkc9d"?>
<x:xmpmeta xmlns:x="adobe:ns:meta/" x:xmptk="Adobe XMP Core 5.6-c142 79.160924, 2017/07/13-01:06:39        ">
   <rdf:RDF xmlns:rdf="http://www.w3.org/1999/02/22-rdf-syntax-ns#">
      <rdf:Description rdf:about=""/>
   </rdf:RDF>
</x:xmpmeta>
                                                                                                    
                                                                                                    
                                                                                                    
                                                                                                    
                                                                                                    
                                                                                                    
                                                                                                    
                                                                                                    
                                                                                                    
                                                                                                    
                                                                                                    
                                                                                                    
                                                                                                    
                                                                                                    
                                                                                                    
                                                                                                    
                                                                                                    
                                                                                                    
                                                                                                    
                                                                                                    
                           
<?xpacket end="w"?></metadata>
<defs>
    <style>
      .cls-1 {
        fill: #f2af47;
        opacity: 0.95;
      }

      .cls-1, .cls-2, .cls-3 {
        fill-rule: evenodd;
      }

      .cls-2 {
        fill: #e8daae;
        stroke: #000;
        stroke-linejoin: round;
        stroke-width: 1px;
      }

      .cls-3 {
        fill: #d6c89c;
      }
    </style>
  </defs>
  <path class="cls-1" d="M253.1,4C388.829,5.169,496.3,122.705,492.9,255.822,489.618,384.466,383.612,495,251,495,118.159,495,12.335,384.091,9.1,255.822,5.71,121.541,115.607,2.816,253.1,4Z"/>
  <path id="fork" class="cls-2" d="M86.578,461.039a62.87,62.87,0,0,0,15.308,1.134c5.614-20.894,11.119-41.644,16.576-62.48,11.45-43.72,22.711-87.855,33.132-130.183q3.188-12.946,6.321-25.85c10.92,2.241,20.616,1.635,29.068-2.024,31.637-13.7,48.555-71.231,32.422-153.839q-20.048,36.844-40.1,73.688,0.131-43.02.259-86.039L135.192,150.7q1.354-42.72,2.71-85.439C83.253,134.283,70.656,194.083,92.321,219.793c6,7.116,14.8,11.827,26.38,14.278-1.526,8.339-3.107,16.556-4.795,24.919C104.672,304.745,92.453,346.467,82.924,391c-4.6,21.518-8.534,42.839-11.976,64.909A96.173,96.173,0,0,0,86.578,461.039Z"/>
  <path id="fork_shades" data-name="fork shades" class="cls-3" d="M140.093,226.256a68.083,68.083,0,0,1-43.054-29.195c-2.587-3.915-13.258-21.085-8.286-26.41,5.684-6.087,36.83,14.269,58.843,19.607,28.576,6.93,65.3.393,67.057,7.266,1.016,3.969-7.444,9.838-20.23,16.665C170.9,226.747,148.076,227.84,140.093,226.256Zm17.822,17.4-4.579,2.794c-6.6,23.874-12.745,47.239-18.684,71.1-1.944,7.812-6.018,24.58-9.03,36.929q-5.108,20.948-10.234,41.853c-4.543,16.077-9.926,35.3-12.965,47.708-0.05.208-.183,0.748-0.371,1.519l-3.241,13.253-0.6,2.462,2.451,0.6,1.527-.931q0.753-3.069,1.5-6.155c1.627-6.681,3.785-15.913,4.816-19.7,2.188-8.025,4.778-15.057,6.944-23.088,1.11-4.114,2.247-8.9,3.311-13.541,1.652-7.195,4.533-18.768,6.924-28.312,3.9-15.589,9.168-33.392,13.724-50.532,3.859-14.52,7.646-29.6,11.293-44.8C153.207,264.384,155.588,254.1,157.915,243.66ZM-27.536,24.8m162.1,48.771a286.616,286.616,0,0,0-27.649,49.336c-3.31,7.581-8.3,19.986-7.568,20.327,0.963,0.449,11.372-20.259,21.264-39.156q6.057-11.572,12.147-23.121c-0.863,9.457-1.428,18.752-1.72,28.28-0.528,17.211-.108,39.309.773,39.326,0.636,0.013,1.357-11.465,1.763-17.833C134.773,112.046,135.094,93.067,134.569,73.575Zm51.146,82.954c5.415-14.622,23.514-44.82,32.809-59.815,0.957,5.769,1.688,11.5,2.218,17.382a291.84,291.84,0,0,1,.106,42.784c-0.429,6.762-.951,15.852-1.526,15.846-0.773-.01-1.055-16.671-1.433-28.955-0.394-12.8-.882-25.51-1.472-38.441-3.221,7.125-6.617,14.021-10.32,20.959-8.8,16.489-20.117,34.564-21.285,33.933C184.485,160.045,185.01,158.432,185.715,156.529Z"/>
  <path id="spoon" class="cls-2" d="M412.264,457.535A62.842,62.842,0,0,0,426,450.827c-5.645-20.7-11.311-41.216-17.063-61.786-12.068-43.16-24.507-86.58-36.763-128.033q-3.749-12.678-7.522-25.294c10.518-3.558,18.555-8.941,23.991-16.311,20.351-27.59,6.061-85.315-49.232-147.922A49.081,49.081,0,0,0,258,93.07c-12.408,86.483,6.735,143.98,38.263,155.118,8.726,3.082,18.663,2.7,29.852-1.012,2.868,7.9,5.627,15.728,8.368,23.732,15,43.789,25.4,85.626,39.53,128.52,6.828,20.726,14.135,40.944,22.239,61.559A96.2,96.2,0,0,0,412.264,457.535Z"/>
  <path id="spoon_shades" data-name="spoon shades" class="cls-3" d="M340.6,229.759a68,68,0,0,1-51.675-3.392c-4.189-2.054-21.976-11.4-20.369-18.447,1.838-8.061,38.839-6.26,60.452-12.733,28.057-8.4,56.372-32.414,61.33-27.415,2.865,2.887-1.471,12.153-9.048,24.409C367.347,214.725,348.257,227.111,340.6,229.759Zm24.058,5.955q-1.269,2.344-2.539,4.688c6.289,23.744,12.719,46.821,19.571,70.218,2.243,7.661,7.145,24.055,10.745,36.134q6.108,20.49,12.178,40.953c4.152,16.038,9.158,35.19,12.765,47.332,0.06,0.2.218,0.732,0.442,1.487,0.655,2.2,3.568,12,3.856,12.967,0.239,0.8.478,1.606,0.717,2.409l2.409-.716,0.846-1.563q-0.891-3-1.791-6.022c-1.95-6.534-4.722-15.518-5.731-19.272-2.141-7.966-3.438-15.283-5.6-23.243-1.108-4.077-2.53-8.746-3.94-13.249-2.187-6.986-5.51-18.337-8.238-27.7-4.456-15.3-8.854-33.177-13.527-50.131-3.96-14.362-8.262-29.166-12.746-44.007C370.992,255.812,367.884,245.816,364.653,235.714ZM290.808,62.336c-7.778,2.481-17.29,8.6-25.814,23.408-7.911,13.742-6.256,29.229-8.428,51.013-0.973,9.767-2.495,22.182,4.007,35.516,4.235,8.685,10.181,14.23,10.679,13.867s-5.341-7.39-7.782-17.351c-3.988-16.276.577-35.763,8.383-37.442,4.631-1,10.175,4.325,15.51,11.983a98.693,98.693,0,0,1,7.027-68.95,122.909,122.909,0,0,1,42.845,51.5c1.323-9.611,4.045-16.913,8.951-18.394,8.863-2.676,24.118,13.869,29.17,31.966,1.623,5.813,1.605,11.213,2.02,11.2,0.642-.022,2.029-10.5-1.272-21.908-2.707-9.354-8.672-17.115-11.265-20.248-12.758-15.418-17.122-28.434-32.166-37.63C315.393,60.3,301.7,58.86,290.808,62.336Z"/>
  <path id="knife" class="cls-2" d="M40.836,362.19A62.805,62.805,0,0,0,43.4,377.261c21.449,0.418,42.734.766,64.09,1.046,44.812,0.587,89.977.892,133.2,0.819q13.221-.022,26.389-0.087c0.449,11.094,3.347,20.322,8.887,27.616,18.318,24.123,107.658,44.844,155.8-5.538C449.646,382.41,458.67,357.14,460,330c-64.549,3.389-128.418,6.368-193,9q-12.505.51-25,1l-135,2-64.961,3.85A96.169,96.169,0,0,0,40.836,362.19Z"/>
  <path id="knife_shades" data-name="knife shades" class="cls-3" d="M267.082,379.039l-3.783-3.757c-24.553-.66-48.507-1-72.887-1.017-7.982-.007-25.093.074-37.7,0.123q-21.379.084-42.724,0.141c-16.558-.538-36.344-1.133-49.011-1.1l-1.551,0-13.528.045-2.513.008q0,1.257.008,2.513l1.261,1.253q3.133-.007,6.283-0.021c6.819-.029,16.219-0.156,20.106-0.066,8.246,0.191,15.633,1.01,23.879,1.178,4.224,0.087,9.1.038,13.823-.045,7.319-.129,19.146-0.118,28.9-0.095,15.935,0.037,34.327.858,51.911,1.153,14.9,0.249,30.312.3,45.814,0.176C246.012,379.456,256.479,379.291,267.082,379.039ZM270,378c2.176,12.857,7.438,24.257,16,33,6.006,6.133,28.961,17.05,60,18,15.631,0.478,29.922-1.406,39-4,23.817-6.805,38.544-17.888,48-29,4.807-5.649,11.889-17.6,17-31a139.354,139.354,0,0,0,8-32c-32.492,1.973-64.478,3.621-97,5-29.47,1.249-58.513,2.239-88,3Zm95,2c-8.655-1.387-14.979-7.753-16-15-1.419-10.067,7.623-19.733,18-20,10.842-.279,20.427,9.772,19,20-1,7.157-7.3,13.514-16,15l19,21H344Z"/>
</svg>
