<svg xmlns="http://www.w3.org/2000/svg" width="500" height="500" viewBox="0 0 500 500">
  <metadata><?xpacket begin="﻿" id="W5M0MpCehiHzreSzNTczkc9d"?>
<x:xmpmeta xmlns:x="adobe:ns:meta/" x:xmptk="Adobe XMP Core 5.6-c142 79.160924, 2017/07/13-01:06:39        ">
   <rdf:RDF xmlns:rdf="http://www.w3.org/1999/02/22-rdf-syntax-ns#">
      <rdf:Description rdf:about=""/>
   </rdf:RDF>
</x:xmpmeta>
                                                                                                    
                                                                                                    
                                                                                                    
                                                                                                    
                                                                                                    
                                                                                                    
                                                                                                    
                                                                                                    
                                                                                                    
                                                                                                    
                                                                                                    
                                                                                                    
                                                                                                    
                                                                                                    
                                                                                                    
                                                                                                    
                                                                                                    
                                                                                                    
                                                                                                    
                                                                                                    
                           
<?xpacket end="w"?></metadata>
<defs>
    <style>
      .cls-1 {
        fill: #f2af47;
        opacity: 0.95;
      }

      .cls-1, .cls-2, .cls-3, .cls-4 {
        fill-rule: evenodd;
      }

      .cls-2 {
        fill: #f2c047;
        stroke: #000;
        stroke-linejoin: round;
        stroke-width: 2px;
      }

      .cls-3 {
        fill: #ae3b1d;
      }

      .cls-4 {
        fill: #912c12;
      }
    </style>
  </defs>
  <path class="cls-1" d="M253.1,4C388.829,5.169,496.3,122.705,492.9,255.822,489.618,384.466,383.612,495,251,495,118.159,495,12.335,384.091,9.1,255.822,5.71,121.541,115.607,2.816,253.1,4Z"/>
  <path class="cls-2" d="M20.033,154.236a1355.23,1355.23,0,0,1,136.3-24.887c21.719-2.831,67.793-6.463,103.113-9.523,54.883-4.754,100.243-7.883,149.885-4.232,19.442,1.43,38.532,3.605,57.764,6.581q0.643,12.183,1.288,24.366c-31.317,2.837-61.874,4.531-92.763,5.13-20.231.392-118.96-3.57-183.144,3.073-30.315,3.137-62.7,7.668-82.915,12.7C63.93,178.79,29.1,197.054,18.145,184.37,12.9,178.3,14.739,167.107,20.033,154.236Z"/>
  <path class="cls-2" d="M29.051,255.547a1355.186,1355.186,0,0,1,136.3-24.887c21.719-2.831,67.793-6.463,103.112-9.523,54.884-4.754,100.243-7.883,149.885-4.232,19.443,1.43,38.533,3.6,57.764,6.581q0.645,12.183,1.289,24.366c-31.317,2.837-61.874,4.531-92.763,5.13-20.231.392-118.96-3.57-183.144,3.073-30.315,3.137-62.7,7.668-82.915,12.7C72.948,280.1,38.12,298.365,27.163,285.681,21.918,279.609,23.757,268.418,29.051,255.547Z"/>
  <path class="cls-2" d="M41.935,355.575a1354.907,1354.907,0,0,1,136.3-24.886c36.108-4.707,67.07-4.341,103.112-9.523,30.537-4.391,60.381-8.429,95.561-7.911a481.872,481.872,0,0,1,54.111,3.848,5.958,5.958,0,1,0,11.6,2.564c-0.246,2.719.3,6.25,2.576,7.7,3.052,1.937,9.377.141,12.884-6.412,1.212,4.133,3.85,7.867,7.73,8.977,1.579,0.451,5.649-.122,10.307-2.565a45.487,45.487,0,0,0,7.731-5.13,6.462,6.462,0,0,0-2.577,7.695,6.531,6.531,0,0,0,7.73,3.847c-6.675-.48-11.4,3.338-11.6,6.412-0.2,3.21,4.4,7.868,11.6,7.695a64.239,64.239,0,0,0-18.037,1.282c-24.814,1.965-48.929,3.231-73.437,3.847-37.094.932-118.813-3.585-183.145,3.073-30.314,3.137-62.7,7.669-82.915,12.7C85.832,380.13,51,398.393,40.047,385.71,34.8,379.637,36.641,368.447,41.935,355.575Z"/>
  <path id="ketchup" class="cls-3" d="M130.7,239.57c3.61-2.515,5.476-5.49,8.5-7.923,2.195-1.766,8.74-5.3,16.278-6.458,5.066-.78,25.1-3.365,27.416,3.014,0.292,0.805-.107,3.209-1.714,6.027-3.115,5.465-7,6.327-9.862,11.388-1.888,3.336-1.241,7.316-4.513,10.584-2.745,2.74-7.427,4.6-10.532,3.024-2.084-1.06-3.41-4.666-4.513-6.048-2.216-2.777-4.29-3.966-5.278-3.88-3.22.283-4.562,6.042-8.139,12.916-4.879,9.378-10.116,13.586-13.28,13.777-5.491.332-10.337-5.106-12.419-9.2a12.251,12.251,0,0,1-1.5-7.56c0.809-3.43,3.755-4.41,7.069-7.775,2.775-2.818,3.654-5.537,6.854-8.18C126.951,241.716,129.028,240.735,130.7,239.57ZM343.517,118.928c-2.166,3.2-2.789,6.605-3,11.974-0.273,6.869.284,38.755-.515,45.1-0.9,7.117-6.283,12.846-5,21,0.511,3.245,2.6,10.727,9,13,5.334,1.9,11.52-.359,15-4,3.7-3.875,2.833-9.582,6-11,6.486-2.905,17.628,16.08,29,14,2.572-.47,6.392-2.682,10-8,3.621-5.337,5.793-14.019,2-28-1.384-5.1-3.684-7.88-5-13-2.815-10.951.611-17.394-1-28-1.339-8.817-5.374-15.6-7.239-17.362-3.428-3.236-13.549-7.04-28.546-5.022C352.686,111.167,345.467,116.045,343.517,118.928ZM80.744,158.674c-4.087-4.727-14.674,1.269-18.736-3.252-3.165-3.523-1-11.808,2.687-17.455C68.98,131.4,76.239,130.04,78.8,123.2c2.459-6.57-.162-15.291-5.373-19.469-5.26-4.217-13.093-2.438-13.433-4.028-0.377-1.759,8.1-6.725,18.135-6.713,10.308,0.012,16.217,6.19,28.21,13.427,10.319,6.227,16.694,8.529,19.478,16.112,1.906,5.193,2.178,12.977-2.015,18.8-3.021,4.193-9.652,6.768-11.418,8.056-6.233,4.541-9.744,9.856-10.747,12.755-2.922,8.442,2.692,17.989-1.369,22.058-3.685,3.692-13.675,2.09-17.438-3.26-1.7-2.424-1.792-6.292-1.343-12.084C81.881,163.753,82.273,160.442,80.744,158.674ZM205.156,327.39c-1.4-4.265,6.941-10.592,9.606-12.461,5.37-3.765,13.413-7.207,25.318-7.834a61.461,61.461,0,0,1,17.353,1.776,60.36,60.36,0,0,1,6.873,2.081c7.023,2.56,12.985,5.244,12.694,7.305-0.419,2.97-15.392.54-27.9,5.511-12.388,4.922-18.162,12.6-28.684,11.049-2.656-.392-6.976-2.687-11.265-4.383C207.492,329.779,205.7,329.04,205.156,327.39Z"/>
  <path class="cls-4" d="M65.726,139.159a61.158,61.158,0,0,1,5.936-6.432c3.295-2.665,5.626-3.68,7.4-6.959a17.826,17.826,0,0,0,1.6-5.22c0.976-6.254-.433-10.6-1.886-12.9A16.751,16.751,0,0,0,67.746,100.4c-3.587-.679-7.251.359-7.4-0.145-0.137-.47,2.355-1.961,5.367-2.464a15.364,15.364,0,0,1,13.49,4.784c1.7,1.87,2.986,5.738,4.061,10.729,1.108,5.141,1.551,9.11.87,12.468a23.872,23.872,0,0,1-4.5,9.713c-4.408,5.753-12.5,8.032-12.184,10.584,0.292,2.364,6.664,4.731,10.879,2.609,2.845-1.431,3.312-4.21,5.222-7.393,1.436-2.394,5.559-6.528,11.749-9.569,7.441-3.656,13.551-3.323,15.955-2.32,4.823,2.013,9.11,7.268,8.268,11.6-0.561,2.887-3.557,4.264-7.832,7.394-4.449,3.256-7.987,7.021-9.139,9.133a23.457,23.457,0,0,0-2.492,13.028c0.373,4.356,1.81,7.387,0,10.351a8.5,8.5,0,0,1-5.442,3.509c-4.893,1.045-10.4-2.118-12.287-6.842-2.09-5.229.95-10.63,1.4-10.527,0.346,0.078-.679,3.537,1.053,6.667A7.8,7.8,0,0,0,86.9,176.16c1.315,1,4.1,2.418,5.968,1.4,3.023-1.641,1.3-10.7,2.808-15.79a27.742,27.742,0,0,1,8.425-12.633c4.383-3.793,8.771-5.111,9.3-8.947a7.077,7.077,0,0,0-3.51-6.843c-4.916-2.551-12.2,3.241-14.569,5.439-4.645,4.309-5.639,10.093-11.578,13.879a24.319,24.319,0,0,1-9.011,3c-5.3.765-9.287-.542-10.513-1.5a8.238,8.238,0,0,1-3-4.5C60.46,146.318,62.4,143.139,65.726,139.159Zm25.531-21.015a6.183,6.183,0,0,1,3-1.5c1.688-.306,3.106.68,4.505,0,1.472-.716,1.9-3.126,3-4.5a8.917,8.917,0,0,1,1.5-1.5c2.411-1.849,6.365-2.893,7.509-1.5,0.806,0.98.136,3.055-.7,4.385-3.086,4.9-11.391,4.344-16.265,7.689-6.531,4.483-7.673,12.241-8.565,11.944C84.149,132.788,87.205,122.064,91.257,118.144ZM354,207c-3.417,1.56-6.857,2.17-8,2-5.515-.82-9.107-6.475-10-11-1.989-10.076,8.63-18.287,9-18s-8.321,9.153-6,18c0.428,1.633,1.859,5.608,5.039,6.449,2.52,0.666,5.843-1.03,10.423-6.093C361.411,190.672,364.782,181.92,365,182c0.248,0.091-4.822,10.857-5,17a9.251,9.251,0,0,1-1,4C358.151,204.515,356.723,205.757,354,207Zm44-54c-0.563,6.4,3.062,9.845,6,17a40.935,40.935,0,0,1,3,18,27.144,27.144,0,0,1-3,11,18.666,18.666,0,0,1-6,7,12.778,12.778,0,0,1-8,2,11.81,11.81,0,0,1-8-4c-2.216-2.753-2.851-6.522-2-7,1.147-.644,4.428,5.143,9,5a6.888,6.888,0,0,0,4-2c3.74-3.375,4.138-8.933,4-13-0.442-13.037-5.624-21.219-6.605-32.811-0.414-4.9.488-15.671-.656-15.857-1.054-.171-2.009,6.436-6.562,8.689-4.058,2.009-10.936,1.087-13.342-3.475-2.846-5.4,2.611-11.7,3.062-11.513,0.408,0.165-2.566,5.873-.109,8.636a5.835,5.835,0,0,0,6.234,1.139c5.088-2.135,4.123-12.522,7-12.816a7.731,7.731,0,0,0,3.825,5.436A8.037,8.037,0,0,0,399,133a76.771,76.771,0,0,0,0,8,40.712,40.712,0,0,1,0,6C398.808,149.221,398.2,150.779,398,153ZM113,258c-1.39,4.224-.017,9.548,3.408,13.065,1.242,1.277,5.153,4.772,9.592,3.935,3.709-.7,5.467-4,8.987-9.841,1.179-1.956,4.179-6.879,3.981-7-0.3-.182-5.883,11.538-13.968,11.841a9.742,9.742,0,0,1-6.159-2c-2.195-1.671-4.44-4.909-3.841-8,0.772-3.99,5.876-4.611,8-9,0.72-1.489.764-3.249,2-5,2-2.832,5.088-3.792,5-4-0.078-.185-2.509.269-5,2-2.6,1.807-3.348,3.68-5,6C117.628,253.331,114.247,254.209,113,258Zm40.7-3.149c-2.107-4.095-4.287-6.437-5.611-6.671-3.12-.549-5.837,3.943-6.775,3.362-0.831-.515-0.028-4.817,2.8-6.431,3.2-1.826,8.263.208,10.752,3.362,1.769,2.24,1.827,5.881,3.093,6.138,1.728,0.35,6-8.239,7.66-10.377,4.865-6.264,10.908-9.662,11.341-9.207,0.348,0.365-2.41,3.758-6.039,8.476a15.174,15.174,0,0,0-3.24,5.847c-0.3,1.181-.14,3.605-1.179,5.407-1.969,3.417-7.193,5.24-10.163,3.654C155.069,257.733,154.63,256.657,153.7,254.851Zm39.682,124.487M149.025,232.454c5.456-3.794,14.964-7.946,19.613-4.171a5.38,5.38,0,0,1,2.13,4.7c-0.594,3.439-6.241,4.732-7.768,5.013a12.984,12.984,0,0,1-6.52-.309A23.394,23.394,0,0,0,164,237c1.562-.451,2.755-1.063,3.13-2.149,0.493-1.43-.6-3.207-1.775-4.171-2.207-1.82-6.241-1.819-13.046,1.153-4.193,1.832-7.347,4.393-7.455,4.26A17.733,17.733,0,0,1,149.025,232.454ZM232,312c-0.071-.44-7.792-0.215-15.443,3.506C209.081,319.144,205.845,322.6,206,326c0.133,2.923,2.8,5.16,4,6a11.783,11.783,0,0,0,6,2,39.99,39.99,0,0,0,9,0c9.454-1.653,22.079-11.709,24.1-12.765,7.9-4.13,14.961-5.017,14.9-5.235-0.118-.43-25.746,3.78-37,8a60.392,60.392,0,0,1-12,2c-3.623.175-5.67-.061-6-1-0.609-1.735,4.882-5.206,8-7a56.431,56.431,0,0,1,10.282-4.52C229.519,312.726,232.031,312.194,232,312Z"/>
</svg>
