<svg xmlns="http://www.w3.org/2000/svg" width="500" height="500" viewBox="0 0 500 500">
  <metadata><?xpacket begin="﻿" id="W5M0MpCehiHzreSzNTczkc9d"?>
<x:xmpmeta xmlns:x="adobe:ns:meta/" x:xmptk="Adobe XMP Core 5.6-c142 79.160924, 2017/07/13-01:06:39        ">
   <rdf:RDF xmlns:rdf="http://www.w3.org/1999/02/22-rdf-syntax-ns#">
      <rdf:Description rdf:about=""/>
   </rdf:RDF>
</x:xmpmeta>
                                                                                                    
                                                                                                    
                                                                                                    
                                                                                                    
                                                                                                    
                                                                                                    
                                                                                                    
                                                                                                    
                                                                                                    
                                                                                                    
                                                                                                    
                                                                                                    
                                                                                                    
                                                                                                    
                                                                                                    
                                                                                                    
                                                                                                    
                                                                                                    
                                                                                                    
                                                                                                    
                           
<?xpacket end="w"?></metadata>
<defs>
    <style>
      .cls-1 {
        fill: #f2af47;
        opacity: 0.95;
      }

      .cls-1, .cls-2, .cls-3 {
        fill-rule: evenodd;
      }

      .cls-2 {
        fill: #e8daae;
        stroke: #000;
        stroke-linejoin: round;
        stroke-width: 1px;
      }

      .cls-3 {
        fill: #d6c89c;
      }
    </style>
  </defs>
  <path class="cls-1" d="M253.1,4C388.829,5.169,496.3,122.705,492.9,255.822,489.618,384.466,383.612,495,251,495,118.159,495,12.335,384.091,9.1,255.822,5.71,121.541,115.607,2.816,253.1,4Z"/>
  <path id="spoon" class="cls-2" d="M285,493a152.732,152.732,0,0,0,35-11q-4.1-27.772-8.2-55.544c23.305-4.494,41.88-13.56,55.518-27.58C418.372,346.4,404.7,220.2,305.574,71.869c-24.558-30.563-63.483-45.338-101.163-38.646-34.441,6.117-63.22,29.267-77.53,60.838C75.714,273.374,99.729,400.484,163.316,433.123c17.6,9.034,38.763,11.084,63.533,6.464A101.693,101.693,0,0,1,230.9,458.55,102.739,102.739,0,0,1,229,493,153.843,153.843,0,0,0,285,493Z"/>
  <path id="spoon_shades" data-name="spoon shades" class="cls-3" d="M262.548,406.928c-40.37,8.058-79.686-2.763-108.5-22.065-8.284-5.55-43.28-30.433-37.846-44.881,6.213-16.516,84.081-2.046,131.733-9.505,61.856-9.682,128.749-52.3,137.816-40.3,5.237,6.932-6.613,25.278-26.191,49.012C323.546,382.847,279.541,403.536,262.548,406.928ZM311.8,426.456l-6.728,9.183c0,8.465.152,16.72,0.463,25.18,0.324,8.809.8,17.391,1.463,26.181l12-5a124.419,124.419,0,0,0-.447-14.1c-0.352-3.973-1.179-8.5-1.837-13.057C315.332,445.264,313.718,435.941,311.8,426.456ZM205.236,38.524c-17.191,3.005-39.1,13.208-61.421,42.063-20.714,26.781-21.663,60.01-32.53,105.451-4.873,20.375-11.667,46.19-1.729,76.262,6.472,19.587,17.475,33.027,18.634,32.4,1.183-.637-9.19-17.168-11.5-38.935C112.929,220.2,128.206,180.3,145.227,179c10.1-.772,20.311,12.079,29.41,29.813A210.3,210.3,0,0,1,209.359,65.028,262.427,262.427,0,0,1,285.313,186.28c5.569-19.943,13.435-34.6,24.254-36.319,19.547-3.105,47.105,36.281,52.6,76.007,1.766,12.761.174,24.175,1.056,24.264,1.367,0.138,7.322-21.629,3.61-46.7-3.044-20.561-13.449-38.692-18.041-46.066C326.2,121.188,320.7,92.4,291.476,68.62,257.907,41.3,229.32,34.313,205.236,38.524Z"/>
</svg>
